#!OML:ASF E:/inclinewalkrobotboard/Project1/Captureday1/Session1/subject1.ASF
:FULLY-SPECIFIED
:DEGREES
138
root 0 0 0 -5.889519736112842 -35.75861555587625 -0.3693292362007166
lowerback 1.3138765949422488 1.0701813064974324 4.854723817350102
upperback -1.1158866216050618 1.9590639870118265 -0.14952802088712502
thorax -1.842792817285283 1.000239394966578 -2.970826837006928
lowerneck -10.298926417697501 0.07352288263161144 -5.065086642035819
upperneck -1.9106222525035381 0.3646931397725819 3.4840721082388466
head 1.2244392121592722 0.3652583666681686 1.9716373617317158
rclavicle -1.1048096027371542E-14 -2.4784033850339596E-16
rhumerus 4.318994834632415 -9.723280453900907 -66.80710148737722
rradius 17.93333417563406
rwrist 56.68262929933202
rhand -7.041776111754723 20.736906007929907
rfingers 7.125019999999923
rthumb 18.819672931458896 -8.9456239267662
lclavicle -1.0806823646346327E-14 2.379493379688491E-15
lhumerus -30.298265455188087 1.3895949566025614 80.66660559328379
lradius 26.841822271389482
lwrist -39.90565962643957
lhand -6.628728893528069 14.925884543186667
lfingers 7.0367470522348965
lthumb 18.89607612217142 39.37120189558924
rfemur 9.25700300072792 9.014365787241054 37.6415486089187
rtibia 24.736129841038593
rfoot -23.632947546795382 -5.512937934694307
rtoes 5.649097505824766
lfemur -15.182550597273005 3.1561889911537016 -12.643575516001494
ltibia 68.41065715945324
lfoot 4.659651355879403 -14.363438273197996
ltoes -17.234091929364943
139
root 0 0 0 -5.123771315879695 -35.3127204644678 -0.7535011951212292
lowerback 1.650622580422171 1.2246148192816193 4.837714538514646
upperback -0.9534474721860628 2.1400855970887127 -0.19789731085964662
thorax -1.8720692694894894 1.0917714025436773 -3.033039463505281
lowerneck -10.023374206799328 -0.04009366079913912 -5.092622070161212
upperneck -1.6253651816412233 0.21460817059095394 3.6212304792218517
head 1.274461173607735 0.28520569499228365 2.0158024979536195
rclavicle -1.1137405007155439E-14 -2.483241932109836E-16
rhumerus 4.399018834353714 -9.682925025349105 -66.7696972033975
rradius 17.990793875090517
rwrist 56.63809018573836
rhand -7.0543735459610755 20.728162513825215
rfingers 7.125019999999924
rthumb 18.807453129127683 -8.954725618343147
lclavicle -1.097411100179146E-14 2.268114017678076E-15
lhumerus -30.32320861800053 1.4193678802098368 80.63142013050069
lradius 26.66766135145744
lwrist -39.82632718473734
lhand -6.5750627151234635 14.998962279911161
lfingers 7.037356351504252
lthumb 18.949802325382656 38.52800064339928
rfemur 9.749615553312179 9.020190182614954 37.66841620712227
rtibia 24.807896067482805
rfoot -23.512551369884044 -5.395694621280924
rtoes 5.251989962491189
lfemur -15.60124492733096 3.1427259968751455 -12.53353763527073
ltibia 68.19370809584643
lfoot 4.525368643094113 -14.222685015107093
ltoes -17.32249046876464
140
root 0 0 0 -4.5169067080257586 -34.904136768003184 -1.1198691566748518
lowerback 1.9544776852827876 1.3625629046824792 4.795009270287196
upperback -0.8069081351049179 2.300149653017564 -0.24951219968838684
thorax -1.8987621936523695 1.1721903585858542 -3.081325613463766
lowerneck -9.783036318138901 -0.16653205063980403 -5.121782178475498
upperneck -1.3190293981622467 0.04723987005334429 3.78099855425176
head 1.3411674163647582 0.1974443851935903 2.0657927443964503
rclavicle -1.1224537468825207E-14 -2.398728271714006E-16
rhumerus 4.417393981283356 -9.63166089014502 -66.76278730200268
rradius 18.040021717692177
rwrist 56.60615346873446
rhand -7.057188052461203 20.727410219283538
rfingers 7.125019999999924
rthumb 18.804698679500714 -8.955433781684192
lclavicle -1.1145621343060671E-14 2.222238106808384E-15
lhumerus -30.380493707228084 1.4180734378814392 80.63689638020706
lradius 26.569802250005118
lwrist -39.753753827067555
lhand -6.534525254586773 15.068489713228018
lfingers 7.0380720815800535
lthumb 18.991309040694503 37.945953172854075
rfemur 10.144948820435285 9.016889630083265 37.68235549023819
rtibia 24.886210326799052
rfoot -23.31161023911809 -5.276215243269988
rtoes 4.948862442620436
lfemur -15.96117906787365 3.1385469627460907 -12.464897604966403
ltibia 68.1260831944977
lfoot 4.4922149386534596 -14.14290708560517
ltoes -17.25804557583944
141
root 0 0 0 -4.008672868940811 -34.45706800142026 -1.4720558785564972
lowerback 2.2565354091247514 1.4933960270897382 4.729583736914202
upperback -0.6659005254548069 2.449970717354338 -0.307988660622793
thorax -1.9290060187629683 1.2469806440466344 -3.1223296265335034
lowerneck -9.564142111499923 -0.29896549187411336 -5.15219768767457
upperneck -1.0132677631535714 -0.12594467159722544 3.9517635125839115
head 1.414188576880413 0.10730807961773547 2.118648543429144
rclavicle -1.130464649567517E-14 -2.296079564293714E-16
rhumerus 4.389751740327633 -9.568201169894893 -66.78546982693341
rradius 18.083512843472946
rwrist 56.58422224848414
rhand -7.050660431542028 20.732680375464316
rfingers 7.125019999999924
rthumb 18.811025417068176 -8.949657123730528
lclavicle -1.130793359398899E-14 2.220269844557539E-15
lhumerus -30.45978149580472 1.383283625528339 80.67724283496698
lradius 26.555776302180348
lwrist -39.67708036318258
lhand -6.504386940627863 15.131681645509527
lfingers 7.038735627400866
lthumb 19.02264616738669 37.59546760064333
rfemur 10.411756234102711 9.002413856370865 37.682612100693575
rtibia 24.97322954435725
rfoot -23.060664198132194 -5.1652701363638815
rtoes 4.751563096503526
lfemur -16.334859718260397 3.1461630819420163 -12.415961885311383
ltibia 68.19717386280348
lfoot 4.527125807494899 -14.092934903287453
ltoes -17.056707895673693
142
root 0 0 0 -3.2164344951471087 -33.389323543383625 -2.0404394461532407
lowerback 2.7907775133165442 1.6876901682134058 4.6204645087583405
upperback -0.4211314265945094 2.6707408750490957 -0.3941804315971688
thorax -1.9844372941504622 1.3566756484838627 -3.1757227535721753
lowerneck -9.18559447858824 -0.5262058616454475 -5.20700189703564
upperneck -0.4923383018744829 -0.41676580157813703 4.223015309008934
head 1.5405256837224215 -0.04496819287193743 2.202930570348738
rclavicle -1.1385800086808885E-14 -2.1857147387792238E-16
rhumerus 4.228365103758214 -9.425399697592743 -66.90109168729288
rradius 18.140722338094335
rwrist 56.56906784419502
rhand -7.0227671574591 20.74593394145008
rfingers 7.125019999999924
rthumb 18.83814949135827 -8.934469338596692
lclavicle -1.152591067974306E-14 2.2984508316670062E-15
lhumerus -30.648273594071632 1.241422921237902 80.83251605191609
lradius 26.736815475680203
lwrist -39.50727270490917
lhand -6.49389091634772 15.229819360664067
lfingers 7.039926656169322
lthumb 19.037134408695177 37.488243247504684
rfemur 10.455417708793213 8.951614488445397 37.65011995028303
rtibia 25.118924385109413
rfoot -22.62958379185263 -5.046295383923847
rtoes 4.7281772938786375
lfemur -16.98264675079143 3.177116298179132 -12.354405004724452
ltibia 68.49105999414634
lfoot 4.653825872001333 -14.037449628955702
ltoes -16.56169834869559
